G04 EAGLE Gerber RS-274X export*
G75*
%MOMM*%
%FSLAX34Y34*%
%LPD*%
%INTop Copper*%
%IPPOS*%
%AMOC8*
5,1,8,0,0,1.08239X$1,22.5*%
G01*
%ADD10C,1.320800*%
%ADD11C,1.879600*%
%ADD12C,0.381000*%


D10*
X203200Y152400D03*
X228600Y152400D03*
X203200Y101600D03*
X228600Y101600D03*
X203200Y50800D03*
X228600Y50800D03*
D11*
X36830Y63500D03*
X39370Y88900D03*
X36830Y114300D03*
X39370Y139700D03*
X88900Y114300D03*
X165100Y114300D03*
X88900Y88900D03*
X165100Y88900D03*
X88900Y63500D03*
X165100Y63500D03*
D12*
X229362Y53340D02*
X229362Y101346D01*
X229362Y53340D02*
X228600Y50800D01*
X229362Y101346D02*
X228600Y101600D01*
X229362Y104013D02*
X229362Y152019D01*
X228600Y152400D01*
X229362Y104013D02*
X228600Y101600D01*
X87122Y141351D02*
X40005Y141351D01*
X87122Y141351D02*
X108458Y162687D01*
X218694Y162687D01*
X226695Y154686D01*
X40005Y141351D02*
X39370Y139700D01*
X226695Y154686D02*
X228600Y152400D01*
X88011Y114681D02*
X37338Y114681D01*
X36830Y114300D01*
X88011Y114681D02*
X88900Y114300D01*
X88011Y88011D02*
X40005Y88011D01*
X39370Y88900D01*
X88011Y88011D02*
X88900Y88900D01*
X88011Y64008D02*
X37338Y64008D01*
X36830Y63500D01*
X88011Y64008D02*
X88900Y63500D01*
X165354Y114681D02*
X202692Y152019D01*
X203200Y152400D01*
X165354Y114681D02*
X165100Y114300D01*
X176022Y101346D02*
X202692Y101346D01*
X176022Y101346D02*
X165354Y90678D01*
X202692Y101346D02*
X203200Y101600D01*
X165354Y90678D02*
X165100Y88900D01*
X173355Y53340D02*
X202692Y53340D01*
X173355Y53340D02*
X165354Y61341D01*
X202692Y53340D02*
X203200Y50800D01*
X165354Y61341D02*
X165100Y63500D01*
M02*
